<?xml version="1.0" standalone="no"?><!DOCTYPE svg PUBLIC "-//W3C//DTD SVG 1.1//EN" "http://www.w3.org/Graphics/SVG/1.1/DTD/svg11.dtd"><svg t="1577079613536" class="icon" viewBox="0 0 1024 1024" version="1.1" xmlns="http://www.w3.org/2000/svg" p-id="934" xmlns:xlink="http://www.w3.org/1999/xlink" width="200" height="200"><defs><style type="text/css"></style></defs><path d="M841.207223 348.16c0-182.857143-146.285714-329.142857-329.142857-329.142857s-329.142857 146.285714-329.142857 329.142857c0 124.342857 65.828571 230.4 168.228571 285.257143-138.971429 54.857143-245.028571 175.542857-274.285714 329.142857-3.657143 18.285714 7.314286 40.228571 29.257143 43.885714h7.314285c18.285714 0 32.914286-10.971429 36.571429-29.257143 32.914286-171.885714 182.857143-296.228571 358.4-299.885714h7.314286c179.2 0 325.485714-146.285714 325.485714-329.142857z m-585.142857 0c0-142.628571 113.371429-256 256-256s256 113.371429 256 256c0 138.971429-113.371429 252.342857-252.342857 256h-10.971429c-138.971429-3.657143-248.685714-117.028571-248.685714-256z m497.371428 332.8c-18.285714-10.971429-40.228571-7.314286-51.2 10.971429s-7.314286 40.228571 10.971429 51.2c84.114286 58.514286 142.628571 138.971429 160.914286 234.057142 3.657143 18.285714 18.285714 29.257143 36.571428 29.257143h7.314286c18.285714-3.657143 32.914286-21.942857 29.257143-43.885714-21.942857-113.371429-91.428571-212.114286-193.828572-281.6z" fill="#333333" p-id="935"></path></svg>