<?xml version="1.0" standalone="no"?><!DOCTYPE svg PUBLIC "-//W3C//DTD SVG 1.1//EN" "http://www.w3.org/Graphics/SVG/1.1/DTD/svg11.dtd"><svg t="1577082078438" class="icon" viewBox="0 0 1024 1024" version="1.1" xmlns="http://www.w3.org/2000/svg" p-id="1555" xmlns:xlink="http://www.w3.org/1999/xlink" width="200" height="200"><defs><style type="text/css"></style></defs><path d="M71.756069 474.310949c-10.19904 0-26.249509-3.452343-33.048869-13.809372-13.59872-13.809371-4.347611-49.678629 9.251109-60.041508l401.150537-334.88896c37.39648-27.618743 91.79136-27.618743 125.782308 0l401.150537 331.436617c13.59872 10.357029 22.849829 46.226286 9.251109 60.035657-13.59872 13.809371-39.848229 17.261714-53.446949 3.452343L534.094994 135.969646c-10.19904-6.904686-30.59712-6.904686-40.79616 0L92.154149 467.406263c-6.79936 6.904686-13.59872 6.904686-20.39808 6.904686z m747.344457 471.642697H217.550263c-50.9952 0-88.385829-37.975771-88.385829-86.308572V531.654949c0-20.714057 19.450149-40.374857 39.848229-40.374858s39.848229 19.6608 39.848228 40.374858v316.287268c0 10.357029 6.79936 17.255863 20.39808 17.255863h581.55008c10.19904 0 16.9984 0 16.9984-20.708206V531.654949c0-20.714057 19.450149-40.374857 39.848229-40.374858 20.39808 0 39.848229 19.6608 39.848229 40.374858v327.990125c-3.411383 51.785143-37.408183 86.308571-88.403383 86.308572z" fill="#1296db" p-id="1556"></path></svg>