<?xml version="1.0" standalone="no"?><!DOCTYPE svg PUBLIC "-//W3C//DTD SVG 1.1//EN" "http://www.w3.org/Graphics/SVG/1.1/DTD/svg11.dtd"><svg t="1577082094037" class="icon" viewBox="0 0 1024 1024" version="1.1" xmlns="http://www.w3.org/2000/svg" p-id="1885" xmlns:xlink="http://www.w3.org/1999/xlink" width="200" height="200"><defs><style type="text/css"></style></defs><path d="M229.136091 229.141943c-126.44352 123.769417-128.6144 326.597486-4.850834 453.041006 123.769417 126.431817 326.597486 128.608549 453.041006 4.839131 126.437669-123.757714 128.608549-326.597486 4.844983-453.035154-123.763566-126.44352-326.597486-128.608549-453.035155-4.844983z m390.887132 399.342446c-93.956389 91.966903-245.221669 90.351909-337.188572-3.60448-91.972754-93.968091-90.35776-245.22752 3.60448-337.194423 93.96224-91.972754 245.221669-90.351909 337.194423 3.60448s90.351909 245.215817-3.610331 337.194423z" fill="#1296db" p-id="1886"></path><path d="M645.9392 697.5488l75.278629-73.681189 204.653714 209.1008-75.278629 73.675338z" fill="#1296db" p-id="1887"></path></svg>