<?xml version="1.0" standalone="no"?><!DOCTYPE svg PUBLIC "-//W3C//DTD SVG 1.1//EN" "http://www.w3.org/Graphics/SVG/1.1/DTD/svg11.dtd"><svg t="1577082087167" class="icon" viewBox="0 0 1024 1024" version="1.1" xmlns="http://www.w3.org/2000/svg" p-id="1720" xmlns:xlink="http://www.w3.org/1999/xlink" width="200" height="200"><defs><style type="text/css"></style></defs><path d="M512.023406 966.474606a44.447451 44.447451 0 0 1-20.052846-4.809875l-389.20192-197.257508c-22.042331-11.18208-31.012571-38.432183-19.994331-60.755383 7.630263-15.471177 22.996114-25.073371 40.088137-25.073371a43.885714 43.885714 0 0 1 20.035291 4.809874l369.09056 187.087726 369.17248-187.087726a43.885714 43.885714 0 0 1 20.035292-4.809874c17.103726 0 32.463726 9.608046 40.088137 25.073371 11.024091 22.311497 2.059703 49.573303-19.994332 60.755383L532.0704 961.664731a44.406491 44.406491 0 0 1-20.046994 4.809875z m0-197.269212a44.488411 44.488411 0 0 1-20.046995-4.798171L102.76864 567.138011c-22.048183-11.176229-31.018423-38.426331-19.994331-60.749531 7.636114-15.471177 22.996114-25.079223 40.093988-25.079223 6.998309 0 13.739154 1.620846 20.02944 4.809874l369.09056 187.087726 369.17248-187.087726a43.955931 43.955931 0 0 1 20.035292-4.809874c17.097874 0 32.457874 9.608046 40.088137 25.079223 11.029943 22.311497 2.059703 49.573303-19.994332 60.749531L532.0704 764.407223a44.488411 44.488411 0 0 1-20.046994 4.798171z m-0.035109-197.26336a44.470857 44.470857 0 0 1-20.046994-4.804023L102.733531 369.874651c-22.048183-11.164526-31.030126-38.408777-20.017737-60.737828a45.325166 45.325166 0 0 1 20.017737-20.281052l389.213623-197.26336a44.470857 44.470857 0 0 1 20.046995-4.804022c6.928091 0 13.856183 1.661806 20.046994 4.804022l389.213623 197.257509c22.048183 11.170377 31.024274 38.414629 20.011885 60.737829a45.284206 45.284206 0 0 1-20.011885 20.281051L532.02944 567.138011a44.453303 44.453303 0 0 1-20.041143 4.804023z m-0.005851-95.998537l289.247817-146.59584-289.247817-146.601691-289.241966 146.601691 289.241966 146.59584z" fill="#1296db" p-id="1721"></path></svg>